<svg width="104" height="82" viewBox="0 0 104 82" fill="none" xmlns="http://www.w3.org/2000/svg">
<path d="M19.6995 78.6981C20.9104 78.3413 21.6109 77.2284 21.2871 76.1298L21.091 75.4642L19.0518 76.2046C18.0386 76.5816 17.5879 77.2112 17.8006 77.9329C18.018 78.6707 18.7693 78.9722 19.6995 78.6981ZM19.6224 80.2112C17.9705 80.698 16.5132 80.0118 16.0666 78.4962C15.6318 77.0207 16.4955 75.7813 18.4672 75.0783L20.7365 74.2614L20.5451 73.6118C20.2686 72.6736 19.4697 72.2989 18.4111 72.6108C17.4087 72.9062 16.925 73.5717 16.9948 74.3704L15.3589 74.8525C15.0061 73.3005 15.9744 71.795 18.0594 71.1806C20.1043 70.578 21.7304 71.2753 22.229 72.9674L23.9423 78.7813L22.2824 79.2705L21.8735 77.8831L21.8334 77.895C21.6208 78.9774 20.7291 79.8851 19.6224 80.2112Z" fill="white"/>
<path d="M26.5423 70.1972C25.3314 70.5541 24.7532 71.7268 25.0407 73.0278L29.2588 71.7848C28.8382 70.5055 27.7532 69.8404 26.5423 70.1972ZM29.9928 74.3052L31.6367 73.8207C31.8499 75.4313 30.7141 76.96 28.7815 77.5295C26.3036 78.2598 24.3101 77.0257 23.5256 74.3633C22.7457 71.717 23.7495 69.5038 26.1311 68.8019C28.4727 68.1119 30.419 69.3337 31.1729 71.8918L31.3478 72.4852L25.3895 74.2411L25.4202 74.3453C25.8527 75.8128 27.0208 76.5232 28.4081 76.1144C29.3944 75.8237 29.9777 75.1115 29.9928 74.3052Z" fill="white"/>
<path d="M30.7484 65.4367L32.4886 64.9239L33.077 66.9206L34.6809 66.448L35.085 67.8193L33.4811 68.2919L34.8518 72.943C35.0668 73.6728 35.4845 73.907 36.1901 73.6991C36.3666 73.6471 36.6425 73.5483 36.7477 73.4912L37.1518 74.8625C36.9735 74.9673 36.598 75.1128 36.2131 75.2262C34.505 75.7296 33.648 75.2762 33.1683 73.6483L31.741 68.8047L30.514 69.1663L30.1099 67.795L31.3369 67.4334L30.7484 65.4367Z" fill="white"/>
<path d="M38.1658 74.5898L34.7557 63.0181L36.4718 62.5124L37.8117 67.0593L37.8518 67.0475C38.0263 65.9241 38.7807 65.0829 40.0638 64.7048C41.9162 64.1589 43.3868 65.0678 43.9492 66.9763L45.5514 72.4133L43.8113 72.9261L42.3083 67.8259C41.942 66.583 41.0967 66.0215 39.8778 66.3807C38.5947 66.7588 38.0688 67.8725 38.4611 69.2037L39.8979 74.0794L38.1658 74.5898Z" fill="white"/>
<path d="M48.1434 63.8316C46.9325 64.1885 46.3542 65.3612 46.6418 66.6622L50.8599 65.4192C50.4393 64.1399 49.3543 63.4748 48.1434 63.8316ZM51.5939 67.9396L53.2378 67.4551C53.4509 69.0657 52.3152 70.5944 50.3826 71.1639C47.9047 71.8942 45.9112 70.6601 45.1266 67.9977C44.3468 65.3514 45.3505 63.1382 47.7322 62.4363C50.0738 61.7463 52.0201 62.9681 52.774 65.5262L52.9488 66.1197L46.9906 67.8755L47.0213 67.9797C47.4538 69.4472 48.6218 70.1576 50.0091 69.7488C50.9955 69.4581 51.5787 68.7459 51.5939 67.9396Z" fill="white"/>
<path d="M54.9188 69.6529L52.4327 61.2167L54.0847 60.7299L54.5077 62.1653L54.5478 62.1535C54.5378 61.0845 55.1191 60.2769 56.1134 59.9839C56.362 59.9106 56.5904 59.8869 56.7258 59.8732L57.2008 61.485C57.0479 61.4691 56.7313 61.5188 56.3945 61.618C55.2799 61.9465 54.81 62.8955 55.1621 64.0904L56.6509 69.1424L54.9188 69.6529Z" fill="white"/>
<path d="M59.8149 68.21L57.3289 59.7739L58.9809 59.2871L59.3991 60.7064L59.4392 60.6946C59.5396 59.6453 60.2374 58.7599 61.3761 58.4243C62.5469 58.0793 63.5742 58.4302 64.2206 59.3815L64.2607 59.3697C64.3912 58.2156 65.2013 57.2971 66.4042 56.9426C68.0721 56.4511 69.4889 57.2363 69.9828 58.9123L71.6913 64.7102L69.9512 65.223L68.3655 59.8421C68.0441 58.7515 67.2744 58.2985 66.2479 58.601C65.2215 58.9035 64.7323 59.8757 65.0466 60.9422L66.5992 66.2108L64.8991 66.7118L63.2756 61.2026C62.9897 60.2323 62.1902 59.7968 61.2119 60.0851C60.1854 60.3876 59.692 61.4045 60.011 62.4871L61.5471 67.6996L59.8149 68.21Z" fill="white"/>
<path d="M72.9308 64.3449L70.4447 55.9088L72.1769 55.3983L74.6629 63.8345L72.9308 64.3449Z" fill="white"/>
<path d="M75.9424 63.4574L73.4564 55.0213L75.1084 54.5345L75.5243 55.9458L75.5644 55.934C75.7379 54.837 76.4611 53.9789 77.7603 53.5961C79.6207 53.0478 81.037 53.9204 81.6065 55.853L83.2158 61.314L81.4757 61.8269L79.9656 56.7026C79.5922 55.4356 78.7932 54.9128 77.5903 55.2673C76.3714 55.6265 75.8408 56.7241 76.226 58.0312L77.6746 62.947L75.9424 63.4574Z" fill="white"/>
<path d="M87.6092 60.1762C85.4761 60.8048 83.5638 59.5207 82.7792 56.8583C81.9946 54.196 82.9074 52.088 85.0244 51.4641C86.2353 51.1073 87.3772 51.4332 88.1245 52.224L88.1566 52.2145L86.819 47.6757L88.5592 47.1629L91.9692 58.7345L90.2852 59.2308L89.8622 57.7954L89.8301 57.8048C89.6165 58.9136 88.8362 59.8147 87.6092 60.1762ZM85.9277 52.7842C84.5564 53.1883 84.0292 54.5638 84.5514 56.3361C85.0761 58.1163 86.2626 58.9781 87.6339 58.574C88.9651 58.1817 89.522 56.7887 89.0021 55.0245C88.4869 53.2763 87.2589 52.3919 85.9277 52.7842Z" fill="white"/>
<path d="M91.3226 52.3535C90.8783 50.8459 91.9047 49.4192 93.8774 48.8378C95.7539 48.2849 97.3786 48.9478 97.8766 50.4309L96.2487 50.9106C95.944 50.1724 95.1871 49.8812 94.2168 50.1672C93.2786 50.4437 92.7878 51.0851 92.9839 51.7507C93.1375 52.2719 93.6585 52.5019 94.5964 52.4608L96.1127 52.3713C97.9333 52.2793 98.7638 52.7318 99.1301 53.9747C99.5839 55.5144 98.4604 56.996 96.3914 57.6057C94.3946 58.1941 92.7666 57.5495 92.1742 56.042L93.8903 55.5363C94.2653 56.3061 95.0232 56.5708 96.0817 56.2589C97.1242 55.9517 97.6381 55.3296 97.4372 54.6479C97.2789 54.1107 96.8707 53.9085 95.9224 53.9439L94.3061 54.0193C92.6738 54.0994 91.67 53.5324 91.3226 52.3535Z" fill="white"/>
<path d="M102.028 55.8661C101.443 56.0386 100.841 55.7106 100.668 55.1252C100.496 54.5398 100.824 53.9376 101.409 53.7651C101.994 53.5926 102.597 53.9207 102.769 54.5061C102.942 55.0915 102.614 55.6936 102.028 55.8661Z" fill="#22A699"/>
<path d="M69.8326 51.6876C69.8678 51.4558 70.1575 51.3704 70.3128 51.5461L71.8562 53.292C71.9902 53.4435 71.9213 53.6829 71.7273 53.7401L69.8339 54.2981C69.6399 54.3552 69.4522 54.1915 69.4826 53.9915L69.8326 51.6876Z" fill="#22A699"/>
<path d="M28.5113 41.6782L27.6276 38.6794L22.0486 41.3863C19.2687 42.7723 17.54 44.8404 18.3085 47.4481C18.8464 49.2734 20.9756 50.4881 23.6484 49.7005C27.1036 48.6823 29.7216 45.7852 28.5113 41.6782ZM20.0163 34.9708L25.8409 32.6167L24.9572 29.6179L6.70382 34.997L4.24481 26.6525L33.5807 18.0076L43.1862 50.603L32.1037 53.8689L31.1048 50.4789C29.4536 54.0122 26.9811 56.4412 22.2221 57.8436C15.5727 59.8032 9.35844 57.9501 7.36049 51.1703C4.55569 41.6524 13.4286 37.6206 20.0163 34.9708Z" fill="white"/>
<path d="M54.6666 22.3508C51.5374 23.273 50.1964 25.9354 51.2722 29.5861L56.3247 46.7312L45.2423 49.9971L35.6368 17.4017L46.7192 14.1359L47.7374 17.591C48.913 14.127 51.7767 11.5827 55.623 10.4492C58.1002 9.71922 62.085 9.53686 65.6189 12.3923C66.7293 8.94762 70.2257 6.14597 74.6587 4.83963C81.1778 2.91853 88.9339 4.95485 92.3727 16.624L97.6557 34.5515L86.5733 37.8173L81.4823 20.5418C80.3297 16.6303 78.07 15.4541 75.332 16.2609C72.2029 17.1831 70.8619 19.8455 71.9377 23.4962L76.9902 40.6414L65.9078 43.9072L60.8169 26.6317C59.6642 22.7202 57.4046 21.544 54.6666 22.3508Z" fill="white"/>
<circle cx="39.433" cy="33.9168" r="6.02454" transform="rotate(-16.4197 39.433 33.9168)" fill="#22A699" stroke="#101111" stroke-width="1.56703"/>
</svg>
